<svg width="10" height="5" viewBox="0 0 10 5" fill="none" xmlns="http://www.w3.org/2000/svg">
<path d="M9.66669 0.779973C9.66703 0.87957 9.64504 0.977976 9.60236 1.06796C9.55967 1.15795 9.49737 1.23723 9.42002 1.29997L5.42002 4.51997C5.30073 4.61803 5.1511 4.67163 4.99669 4.67163C4.84227 4.67163 4.69264 4.61803 4.57335 4.51997L0.573354 1.18664C0.43721 1.07348 0.351594 0.910873 0.335341 0.734589C0.319087 0.558305 0.373529 0.382784 0.486688 0.246639C0.599847 0.110495 0.762454 0.024879 0.938739 0.00862599C1.11502 -0.007627 1.29054 0.0468135 1.42669 0.159973L5.00002 3.13997L8.57335 0.259973C8.67121 0.178451 8.79037 0.126666 8.91674 0.110746C9.0431 0.0948268 9.17138 0.115439 9.2864 0.170142C9.40142 0.224846 9.49836 0.311353 9.56576 0.419427C9.63315 0.5275 9.66817 0.652617 9.66669 0.779973Z" fill="#1F1C4E"/>
</svg>
