<svg width="24" height="24" viewBox="0 0 24 24" fill="none" xmlns="http://www.w3.org/2000/svg">
<path d="M12 22.88C5.98396 22.88 1.11996 18.016 1.11996 12C1.11996 5.98396 5.98396 1.11996 12 1.11996C18.016 1.11996 22.88 5.98396 22.88 12C22.88 18.016 18.016 22.88 12 22.88ZM12 2.39996C6.68796 2.39996 2.39996 6.68796 2.39996 12C2.39996 17.312 6.68796 21.6 12 21.6C17.312 21.6 21.6 17.312 21.6 12C21.6 6.68796 17.312 2.39996 12 2.39996Z" fill="#5DBDFB"/>
<path d="M6.23999 11.36H17.76V12.64H6.23999V11.36Z" fill="#5DBDFB"/>
<path d="M11.36 6.23999H12.64V17.76H11.36V6.23999Z" fill="#5DBDFB"/>
</svg>
